# xmcd
#
# Track frame offsets:
#	150
#	24739
#	37275
#	53530
#	66723
#	76937
#	86565
#	98619
#	124776
#	137658
#	155571
#	179834
#
# Disc length: 2554 seconds
#
# Revision: 1
# Processed by: cddbd v1.5.1PL0 Copyright (c) Steve Scherf et al.
# Submitted via: CDex 1.50Beta5
#
DISCID=a709f80c
DTITLE=日本国有鉄道 - 懐かしの東北・上越新幹線チャイム
DYEAR=1900
DGENRE=
TTITLE0=ホーン 発車〜ビュフェ車内
TTITLE1=宇都宮〜車内検札
TTITLE2=郡山〜福島到着音
TTITLE3=すれ違い案内〜車内販売
TTITLE4=やまびこ号案内〜水沢江刺
TTITLE5=北上〜新花巻
TTITLE6=盛岡到着
TTITLE7=運転室〜車掌
TTITLE8=高崎〜上毛高原
TTITLE9=運転室発車音〜越後湯沢
TTITLE10=トンネル飛び出し案内〜燕三条
TTITLE11=新潟到着
EXTD=
EXTT0=
EXTT1=
EXTT2=
EXTT3=
EXTT4=
EXTT5=
EXTT6=
EXTT7=
EXTT8=
EXTT9=
EXTT10=
EXTT11=
PLAYORDER=
